<?xml version="1.0" encoding="UTF-8" standalone="no"?>
<svg
   xmlns:dc="http://purl.org/dc/elements/1.1/"
   xmlns:cc="http://creativecommons.org/ns#"
   xmlns:rdf="http://www.w3.org/1999/02/22-rdf-syntax-ns#"
   xmlns:svg="http://www.w3.org/2000/svg"
   xmlns="http://www.w3.org/2000/svg"
   width="64"
   height="64"
   viewBox="0 0 16.933333 16.933334"
   version="1.1"
   id="svg8">
  <defs
     id="defs2" />
  <metadata
     id="metadata5">
    <rdf:RDF>
      <cc:Work
         rdf:about="">
        <dc:format>image/svg+xml</dc:format>
        <dc:type
           rdf:resource="http://purl.org/dc/dcmitype/StillImage" />
        <dc:title></dc:title>
      </cc:Work>
    </rdf:RDF>
  </metadata>
  <g
     id="layer1"
     transform="rotate(90,148.54053,148.50001)">
    <path
       id="path4567"
       d="m 4.6545106,294.05813 a 1.8520833,1.3229166 60 0 0 2.071727,0.9425 1.5875,1.1906249 60 0 0 1.8248567,0.7795 1.5875,1.1906249 60 0 0 0.06607,-0.0428 1.3229166,1.0583333 60 0 0 1.0003376,0.0377 1.3229166,1.0583333 60 0 0 0.4367271,-1.20211 1.0583333,0.92604165 60 0 0 0.197493,-0.0807 1.0583333,0.92604165 60 0 0 0.372131,-1.15585 1.4552083,0.92604165 60 0 0 0.226837,-0.0743 1.4552083,0.92604165 60 0 0 0.07437,-1.72327 1.4552083,0.92604165 60 0 0 -0.907882,-0.8232 2.9104166,1.7197916 60 0 0 -0.2604596,-0.52033 2.9104166,1.7197916 60 0 0 -0.0144,-0.0239 1.3229166,0.6614583 60 0 0 -0.1887804,-1.38636 1.3229166,0.6614583 60 0 0 -1.2343012,-0.81495 1.3229166,0.6614583 60 0 0 -0.1078632,0.1005 0.92604165,0.6614583 60 0 0 -0.072807,-0.14891 0.92604165,0.6614583 60 0 0 -1.0358612,-0.47124 0.92604165,0.6614583 60 0 0 -0.2122332,0.24426 1.1906249,1.5875 60 0 0 -1.1803107,0.2542 1.1906249,1.5875 60 0 0 -0.681113,0.64446 1.4552083,0.92604165 60 0 0 -1.0728484,-0.24283 1.4552083,0.92604165 60 0 0 -0.1200042,1.63803 1.7197916,1.3229166 60 0 0 -0.077164,1.98922 1.7197916,1.3229166 60 0 0 0.5896183,0.65847 1.8520833,1.3229166 60 0 0 0.3057287,1.42148 z"
       style="fill:#f2f2f2;fill-opacity:1;stroke:#000000;stroke-width:0.26458332;stroke-miterlimit:4;stroke-dasharray:none;stroke-opacity:1" />
    <g
       transform="rotate(-180,4.2535933,288.55359)"
       id="g4578">
      <rect
         ry="0.79374999"
         rx="0.79374999"
         y="280.59583"
         x="0.52916664"
         height="15.875"
         width="7.4083333"
         id="rect3717"
         style="fill:#333333;fill-opacity:1;stroke:#000000;stroke-width:0.26458332" />
      <rect
         ry="0.39687499"
         rx="0.39687499"
         y="281.12497"
         x="1.0583333"
         height="3.96875"
         width="6.3499999"
         id="rect3719"
         style="fill:#93ac9d;fill-opacity:1;stroke:none;stroke-width:0.26458332" />
      <rect
         style="fill:#93ac9d;fill-opacity:1;stroke:#000000;stroke-width:0.13229167;stroke-miterlimit:4;stroke-dasharray:none;stroke-opacity:1"
         id="rect4582"
         width="1.5875"
         height="0.79374999"
         x="1.0583333"
         y="285.62289"
         rx="0.26458332"
         ry="0.26458332" />
      <rect
         ry="0.26458332"
         rx="0.26458332"
         y="285.62289"
         x="3.4395835"
         height="0.79374999"
         width="1.5875"
         id="rect4586"
         style="fill:#93ac9d;fill-opacity:1;stroke:#000000;stroke-width:0.13229167;stroke-miterlimit:4;stroke-dasharray:none;stroke-opacity:1" />
      <rect
         style="fill:#93ac9d;fill-opacity:1;stroke:#000000;stroke-width:0.13229167;stroke-miterlimit:4;stroke-dasharray:none;stroke-opacity:1"
         id="rect4588"
         width="1.5875"
         height="0.79374999"
         x="5.8208337"
         y="285.62289"
         rx="0.26458332"
         ry="0.26458332" />
      <rect
         ry="0.26458332"
         rx="0.26458332"
         y="287.21039"
         x="1.0583333"
         height="0.79374999"
         width="1.5875"
         id="rect4590"
         style="fill:#93ac9d;fill-opacity:1;stroke:#000000;stroke-width:0.13229167;stroke-miterlimit:4;stroke-dasharray:none;stroke-opacity:1" />
      <rect
         style="fill:#93ac9d;fill-opacity:1;stroke:#000000;stroke-width:0.13229167;stroke-miterlimit:4;stroke-dasharray:none;stroke-opacity:1"
         id="rect4592"
         width="1.5875"
         height="0.79374999"
         x="3.4395835"
         y="287.21039"
         rx="0.26458332"
         ry="0.26458332" />
      <rect
         ry="0.26458332"
         rx="0.26458332"
         y="287.21039"
         x="5.8208337"
         height="0.79374999"
         width="1.5875"
         id="rect4594"
         style="fill:#93ac9d;fill-opacity:1;stroke:#000000;stroke-width:0.13229167;stroke-miterlimit:4;stroke-dasharray:none;stroke-opacity:1" />
      <rect
         ry="0.26458332"
         rx="0.26458332"
         y="288.79788"
         x="1.0583333"
         height="0.79374999"
         width="1.5875"
         id="rect4596"
         style="fill:#93ac9d;fill-opacity:1;stroke:#000000;stroke-width:0.13229167;stroke-miterlimit:4;stroke-dasharray:none;stroke-opacity:1" />
      <rect
         style="fill:#93ac9d;fill-opacity:1;stroke:#000000;stroke-width:0.13229167;stroke-miterlimit:4;stroke-dasharray:none;stroke-opacity:1"
         id="rect4598"
         width="1.5875"
         height="0.79374999"
         x="3.4395835"
         y="288.79788"
         rx="0.26458332"
         ry="0.26458332" />
      <rect
         ry="0.26458332"
         rx="0.26458332"
         y="288.79788"
         x="5.8208337"
         height="0.79374999"
         width="1.5875"
         id="rect4600"
         style="fill:#93ac9d;fill-opacity:1;stroke:#000000;stroke-width:0.13229167;stroke-miterlimit:4;stroke-dasharray:none;stroke-opacity:1" />
      <rect
         style="fill:#93ac9d;fill-opacity:1;stroke:#000000;stroke-width:0.13229167;stroke-miterlimit:4;stroke-dasharray:none;stroke-opacity:1"
         id="rect4602"
         width="1.5875"
         height="0.79374999"
         x="1.0583333"
         y="290.38538"
         rx="0.26458332"
         ry="0.26458332" />
      <rect
         ry="0.26458332"
         rx="0.26458332"
         y="290.38538"
         x="3.4395835"
         height="0.79374999"
         width="1.5875"
         id="rect4604"
         style="fill:#93ac9d;fill-opacity:1;stroke:#000000;stroke-width:0.13229167;stroke-miterlimit:4;stroke-dasharray:none;stroke-opacity:1" />
      <rect
         style="fill:#93ac9d;fill-opacity:1;stroke:#000000;stroke-width:0.13229167;stroke-miterlimit:4;stroke-dasharray:none;stroke-opacity:1"
         id="rect4606"
         width="1.5875"
         height="0.79374999"
         x="5.8208337"
         y="290.38538"
         rx="0.26458332"
         ry="0.26458332" />
      <rect
         style="fill:#93ac9d;fill-opacity:1;stroke:#000000;stroke-width:0.13229167;stroke-miterlimit:4;stroke-dasharray:none;stroke-opacity:1"
         id="rect4608"
         width="1.5875"
         height="0.79374999"
         x="1.0583333"
         y="291.9729"
         rx="0.26458332"
         ry="0.26458332" />
      <rect
         ry="0.26458332"
         rx="0.26458332"
         y="291.9729"
         x="3.4395835"
         height="0.79374999"
         width="1.5875"
         id="rect4610"
         style="fill:#93ac9d;fill-opacity:1;stroke:#000000;stroke-width:0.13229167;stroke-miterlimit:4;stroke-dasharray:none;stroke-opacity:1" />
      <rect
         style="fill:#93ac9d;fill-opacity:1;stroke:#000000;stroke-width:0.13229167;stroke-miterlimit:4;stroke-dasharray:none;stroke-opacity:1"
         id="rect4612"
         width="1.5875"
         height="0.79374999"
         x="5.8208337"
         y="291.9729"
         rx="0.26458332"
         ry="0.26458332" />
      <rect
         ry="0.26458332"
         rx="0.26458332"
         y="293.56039"
         x="1.0583333"
         height="0.79374999"
         width="1.5875"
         id="rect4614"
         style="fill:#93ac9d;fill-opacity:1;stroke:#000000;stroke-width:0.13229167;stroke-miterlimit:4;stroke-dasharray:none;stroke-opacity:1" />
      <rect
         style="fill:#93ac9d;fill-opacity:1;stroke:#000000;stroke-width:0.13229167;stroke-miterlimit:4;stroke-dasharray:none;stroke-opacity:1"
         id="rect4616"
         width="1.5875"
         height="0.79374999"
         x="3.4395835"
         y="293.56039"
         rx="0.26458332"
         ry="0.26458332" />
      <rect
         ry="0.26458332"
         rx="0.26458332"
         y="293.56039"
         x="5.8208337"
         height="0.79374999"
         width="1.5875"
         id="rect4618"
         style="fill:#93ac9d;fill-opacity:1;stroke:#000000;stroke-width:0.13229167;stroke-miterlimit:4;stroke-dasharray:none;stroke-opacity:1" />
      <rect
         style="fill:#93ac9d;fill-opacity:1;stroke:#000000;stroke-width:0.13229167;stroke-miterlimit:4;stroke-dasharray:none;stroke-opacity:1"
         id="rect4620"
         width="1.5875"
         height="0.79374999"
         x="1.0583333"
         y="295.14789"
         rx="0.26458332"
         ry="0.26458332" />
      <rect
         ry="0.26458332"
         rx="0.26458332"
         y="295.14789"
         x="3.4395835"
         height="0.79374999"
         width="1.5875"
         id="rect4622"
         style="fill:#93ac9d;fill-opacity:1;stroke:#000000;stroke-width:0.13229167;stroke-miterlimit:4;stroke-dasharray:none;stroke-opacity:1" />
      <rect
         style="fill:#93ac9d;fill-opacity:1;stroke:#000000;stroke-width:0.13229167;stroke-miterlimit:4;stroke-dasharray:none;stroke-opacity:1"
         id="rect4624"
         width="1.5875"
         height="0.79374999"
         x="5.8208337"
         y="295.14789"
         rx="0.26458332"
         ry="0.26458332" />
    </g>
    <text
       xml:space="preserve"
       style="font-style:normal;font-variant:normal;font-weight:bold;font-stretch:normal;font-size:4.93888903px;font-family:monospace;-inkscape-font-specification:'monospace Bold';letter-spacing:0px;word-spacing:0px;fill:#333333;fill-opacity:1;stroke:#93ac9d;stroke-width:0.15875;stroke-linecap:butt;stroke-linejoin:miter;stroke-miterlimit:4;stroke-dasharray:none;stroke-opacity:1"
       x="-295.99472"
       y="16.295666"
       id="text3723"
       transform="rotate(-90)"><tspan
         id="tspan3721"
         x="-295.99472"
         y="16.295666"
         style="font-style:normal;font-variant:normal;font-weight:bold;font-stretch:normal;font-size:4.93888903px;font-family:monospace;-inkscape-font-specification:'monospace Bold';fill:#333333;stroke:#93ac9d;stroke-width:0.15875;stroke-miterlimit:4;stroke-dasharray:none">tihle</tspan></text>
    <path
       style="fill:#f2f2f2;fill-opacity:1;stroke:#000000;stroke-width:0.26458332;stroke-miterlimit:4;stroke-dasharray:none;stroke-opacity:1"
       d="m 11.681696,285.37056 a 1.3229166,1.8520833 0 0 0 -1.32292,-1.85209 1.1906249,1.5875 0 0 0 -1.1906195,-1.5875 1.1906249,1.5875 0 0 0 -0.0786,0.004 1.0583333,1.3229166 0 0 0 -0.8474897,-0.53278 1.0583333,1.3229166 0 0 0 -0.97927,0.82269 0.92604165,1.0583333 0 0 0 -0.21136,-0.0289 0.92604165,1.0583333 0 0 0 -0.9002001,0.81493 0.92604165,1.4552083 0 0 0 -0.23358,-0.0491 0.92604165,1.4552083 0 0 0 -0.92604,1.45521 0.92604165,1.4552083 0 0 0 0.37465,1.16685 1.7197916,2.9104166 0 0 0 -0.0346,0.58085 1.7197916,2.9104166 0 0 0 5.2e-4,0.0279 0.6614583,1.3229166 0 0 0 -0.52969,1.29501 0.6614583,1.3229166 0 0 0 0.66146,1.32292 0.6614583,1.3229166 0 0 0 0.14366,-0.0331 0.6614583,0.92604165 0 0 0 -0.0114,0.16536 0.6614583,0.92604165 0 0 0 0.66146,0.92604 0.6614583,0.92604165 0 0 0 0.3059301,-0.10542 1.5875,1.1906249 0 0 0 1.14928,0.37001 1.5875,1.1906249 0 0 0 0.9120899,-0.21756 0.92604165,1.4552083 0 0 0 0.8076996,0.74672 0.92604165,1.4552083 0 0 0 0.9229397,-1.35857 1.3229166,1.7197916 0 0 0 1.06144,-1.68414 1.3229166,1.7197916 0 0 0 -0.18139,-0.86506 1.3229166,1.8520833 0 0 0 0.44597,-1.3839 z"
       id="path4530" />
  </g>
</svg>
