<?xml version="1.0" encoding="UTF-8" standalone="no"?>
<svg
   xmlns:dc="http://purl.org/dc/elements/1.1/"
   xmlns:cc="http://creativecommons.org/ns#"
   xmlns:rdf="http://www.w3.org/1999/02/22-rdf-syntax-ns#"
   xmlns:svg="http://www.w3.org/2000/svg"
   xmlns="http://www.w3.org/2000/svg"
   id="svg8"
   version="1.1"
   viewBox="0 0 16.933333 16.933334"
   height="64"
   width="64">
  <defs
     id="defs2" />
  <metadata
     id="metadata5">
    <rdf:RDF>
      <cc:Work
         rdf:about="">
        <dc:format>image/svg+xml</dc:format>
        <dc:type
           rdf:resource="http://purl.org/dc/dcmitype/StillImage" />
        <dc:title></dc:title>
      </cc:Work>
    </rdf:RDF>
  </metadata>
  <g
     transform="translate(0,-280.06665)"
     id="layer1">
    <g
       id="g4578">
      <rect
         style="fill:#333333;stroke:#000000;stroke-width:0.26458332;fill-opacity:1"
         id="rect3717"
         width="7.4083333"
         height="15.875"
         x="0.52916664"
         y="280.59583"
         rx="0.79374999"
         ry="0.79374999" />
      <rect
         style="fill:#93ac9d;stroke:none;stroke-width:0.26458332;fill-opacity:1"
         id="rect3719"
         width="6.3499999"
         height="3.96875"
         x="1.0583333"
         y="281.12497"
         rx="0.39687499"
         ry="0.39687499" />
      <rect
         ry="0.26458332"
         rx="0.26458332"
         y="285.62289"
         x="1.0583333"
         height="0.79374999"
         width="1.5875"
         id="rect4582"
         style="fill:#93ac9d;fill-opacity:1;stroke:#000000;stroke-width:0.13229167;stroke-miterlimit:4;stroke-dasharray:none;stroke-opacity:1" />
      <rect
         style="fill:#93ac9d;fill-opacity:1;stroke:#000000;stroke-width:0.13229167;stroke-miterlimit:4;stroke-dasharray:none;stroke-opacity:1"
         id="rect4586"
         width="1.5875"
         height="0.79374999"
         x="3.4395835"
         y="285.62289"
         rx="0.26458332"
         ry="0.26458332" />
      <rect
         ry="0.26458332"
         rx="0.26458332"
         y="285.62289"
         x="5.8208337"
         height="0.79374999"
         width="1.5875"
         id="rect4588"
         style="fill:#93ac9d;fill-opacity:1;stroke:#000000;stroke-width:0.13229167;stroke-miterlimit:4;stroke-dasharray:none;stroke-opacity:1" />
      <rect
         style="fill:#93ac9d;fill-opacity:1;stroke:#000000;stroke-width:0.13229167;stroke-miterlimit:4;stroke-dasharray:none;stroke-opacity:1"
         id="rect4590"
         width="1.5875"
         height="0.79374999"
         x="1.0583333"
         y="287.21039"
         rx="0.26458332"
         ry="0.26458332" />
      <rect
         ry="0.26458332"
         rx="0.26458332"
         y="287.21039"
         x="3.4395835"
         height="0.79374999"
         width="1.5875"
         id="rect4592"
         style="fill:#93ac9d;fill-opacity:1;stroke:#000000;stroke-width:0.13229167;stroke-miterlimit:4;stroke-dasharray:none;stroke-opacity:1" />
      <rect
         style="fill:#93ac9d;fill-opacity:1;stroke:#000000;stroke-width:0.13229167;stroke-miterlimit:4;stroke-dasharray:none;stroke-opacity:1"
         id="rect4594"
         width="1.5875"
         height="0.79374999"
         x="5.8208337"
         y="287.21039"
         rx="0.26458332"
         ry="0.26458332" />
      <rect
         style="fill:#93ac9d;fill-opacity:1;stroke:#000000;stroke-width:0.13229167;stroke-miterlimit:4;stroke-dasharray:none;stroke-opacity:1"
         id="rect4596"
         width="1.5875"
         height="0.79374999"
         x="1.0583333"
         y="288.79788"
         rx="0.26458332"
         ry="0.26458332" />
      <rect
         ry="0.26458332"
         rx="0.26458332"
         y="288.79788"
         x="3.4395835"
         height="0.79374999"
         width="1.5875"
         id="rect4598"
         style="fill:#93ac9d;fill-opacity:1;stroke:#000000;stroke-width:0.13229167;stroke-miterlimit:4;stroke-dasharray:none;stroke-opacity:1" />
      <rect
         style="fill:#93ac9d;fill-opacity:1;stroke:#000000;stroke-width:0.13229167;stroke-miterlimit:4;stroke-dasharray:none;stroke-opacity:1"
         id="rect4600"
         width="1.5875"
         height="0.79374999"
         x="5.8208337"
         y="288.79788"
         rx="0.26458332"
         ry="0.26458332" />
      <rect
         ry="0.26458332"
         rx="0.26458332"
         y="290.38538"
         x="1.0583333"
         height="0.79374999"
         width="1.5875"
         id="rect4602"
         style="fill:#93ac9d;fill-opacity:1;stroke:#000000;stroke-width:0.13229167;stroke-miterlimit:4;stroke-dasharray:none;stroke-opacity:1" />
      <rect
         style="fill:#93ac9d;fill-opacity:1;stroke:#000000;stroke-width:0.13229167;stroke-miterlimit:4;stroke-dasharray:none;stroke-opacity:1"
         id="rect4604"
         width="1.5875"
         height="0.79374999"
         x="3.4395835"
         y="290.38538"
         rx="0.26458332"
         ry="0.26458332" />
      <rect
         ry="0.26458332"
         rx="0.26458332"
         y="290.38538"
         x="5.8208337"
         height="0.79374999"
         width="1.5875"
         id="rect4606"
         style="fill:#93ac9d;fill-opacity:1;stroke:#000000;stroke-width:0.13229167;stroke-miterlimit:4;stroke-dasharray:none;stroke-opacity:1" />
      <rect
         ry="0.26458332"
         rx="0.26458332"
         y="291.9729"
         x="1.0583333"
         height="0.79374999"
         width="1.5875"
         id="rect4608"
         style="fill:#93ac9d;fill-opacity:1;stroke:#000000;stroke-width:0.13229167;stroke-miterlimit:4;stroke-dasharray:none;stroke-opacity:1" />
      <rect
         style="fill:#93ac9d;fill-opacity:1;stroke:#000000;stroke-width:0.13229167;stroke-miterlimit:4;stroke-dasharray:none;stroke-opacity:1"
         id="rect4610"
         width="1.5875"
         height="0.79374999"
         x="3.4395835"
         y="291.9729"
         rx="0.26458332"
         ry="0.26458332" />
      <rect
         ry="0.26458332"
         rx="0.26458332"
         y="291.9729"
         x="5.8208337"
         height="0.79374999"
         width="1.5875"
         id="rect4612"
         style="fill:#93ac9d;fill-opacity:1;stroke:#000000;stroke-width:0.13229167;stroke-miterlimit:4;stroke-dasharray:none;stroke-opacity:1" />
      <rect
         style="fill:#93ac9d;fill-opacity:1;stroke:#000000;stroke-width:0.13229167;stroke-miterlimit:4;stroke-dasharray:none;stroke-opacity:1"
         id="rect4614"
         width="1.5875"
         height="0.79374999"
         x="1.0583333"
         y="293.56039"
         rx="0.26458332"
         ry="0.26458332" />
      <rect
         ry="0.26458332"
         rx="0.26458332"
         y="293.56039"
         x="3.4395835"
         height="0.79374999"
         width="1.5875"
         id="rect4616"
         style="fill:#93ac9d;fill-opacity:1;stroke:#000000;stroke-width:0.13229167;stroke-miterlimit:4;stroke-dasharray:none;stroke-opacity:1" />
      <rect
         style="fill:#93ac9d;fill-opacity:1;stroke:#000000;stroke-width:0.13229167;stroke-miterlimit:4;stroke-dasharray:none;stroke-opacity:1"
         id="rect4618"
         width="1.5875"
         height="0.79374999"
         x="5.8208337"
         y="293.56039"
         rx="0.26458332"
         ry="0.26458332" />
      <rect
         ry="0.26458332"
         rx="0.26458332"
         y="295.14789"
         x="1.0583333"
         height="0.79374999"
         width="1.5875"
         id="rect4620"
         style="fill:#93ac9d;fill-opacity:1;stroke:#000000;stroke-width:0.13229167;stroke-miterlimit:4;stroke-dasharray:none;stroke-opacity:1" />
      <rect
         style="fill:#93ac9d;fill-opacity:1;stroke:#000000;stroke-width:0.13229167;stroke-miterlimit:4;stroke-dasharray:none;stroke-opacity:1"
         id="rect4622"
         width="1.5875"
         height="0.79374999"
         x="3.4395835"
         y="295.14789"
         rx="0.26458332"
         ry="0.26458332" />
      <rect
         ry="0.26458332"
         rx="0.26458332"
         y="295.14789"
         x="5.8208337"
         height="0.79374999"
         width="1.5875"
         id="rect4624"
         style="fill:#93ac9d;fill-opacity:1;stroke:#000000;stroke-width:0.13229167;stroke-miterlimit:4;stroke-dasharray:none;stroke-opacity:1" />
    </g>
    <text
       transform="rotate(90)"
       id="text3723"
       y="-11.829458"
       x="281.07193"
       style="font-style:normal;font-variant:normal;font-weight:bold;font-stretch:normal;font-size:4.93888903px;font-family:monospace;-inkscape-font-specification:'monospace Bold';letter-spacing:0px;word-spacing:0px;fill:#333333;fill-opacity:1;stroke:#93ac9d;stroke-width:0.15875;stroke-linecap:butt;stroke-linejoin:miter;stroke-miterlimit:4;stroke-dasharray:none;stroke-opacity:1"
       xml:space="preserve"><tspan
         style="font-style:normal;font-variant:normal;font-weight:bold;font-stretch:normal;font-size:4.93888903px;font-family:monospace;-inkscape-font-specification:'monospace Bold';fill:#333333;stroke:#93ac9d;stroke-width:0.15875;stroke-miterlimit:4;stroke-dasharray:none"
         y="-11.829458"
         x="281.07193"
         id="tspan3721">tihle</tspan></text>
    <path
       id="path4530"
       d="m 5.926251,286.85481 a 1.8520833,1.3229166 0 0 0 -1.8520833,1.32292 1.5875,1.1906249 0 0 0 -1.5875,1.19062 1.5875,1.1906249 0 0 0 0.00362,0.0786 1.3229166,1.0583333 0 0 0 -0.532784,0.84749 1.3229166,1.0583333 0 0 0 0.8226887,0.97927 1.0583333,0.92604165 0 0 0 -0.028939,0.21136 1.0583333,0.92604165 0 0 0 0.8149373,0.9002 1.4552083,0.92604165 0 0 0 -0.049093,0.23358 1.4552083,0.92604165 0 0 0 1.4552083,0.92604 1.4552083,0.92604165 0 0 0 1.166854,-0.37465 2.9104166,1.7197916 0 0 0 0.580843,0.0346 2.9104166,1.7197916 0 0 0 0.027905,-5.2e-4 1.3229166,0.6614583 0 0 0 1.2950113,0.52969 1.3229166,0.6614583 0 0 0 1.3229167,-0.66146 1.3229166,0.6614583 0 0 0 -0.033073,-0.14366 0.92604165,0.6614583 0 0 0 0.1653646,0.0114 0.92604165,0.6614583 0 0 0 0.9260424,-0.66146 0.92604165,0.6614583 0 0 0 -0.10542,-0.30593 1.1906249,1.5875 0 0 0 0.370003,-1.14928 1.1906249,1.5875 0 0 0 -0.217558,-0.91209 1.4552083,0.92604165 0 0 0 0.746725,-0.8077 1.4552083,0.92604165 0 0 0 -1.3585743,-0.92294 1.7197916,1.3229166 0 0 0 -1.6841348,-1.06144 1.7197916,1.3229166 0 0 0 -0.8650634,0.18139 1.8520833,1.3229166 0 0 0 -1.3838949,-0.44597 z"
       style="fill:#f2f2f2;fill-opacity:1;stroke:#93ac9d;stroke-width:0.26458332;stroke-miterlimit:4;stroke-dasharray:none;stroke-opacity:1" />
  </g>
</svg>
